<svg width="132" height="35" viewBox="0 0 132 35" fill="none" xmlns="http://www.w3.org/2000/svg">
<path d="M8.11676 10.3754V35L0 30.2273V4.77283L8.11676 10.3754Z" fill="white"/>
<path d="M8.92844 0L0 4.77272L17.8569 12.7273V22.2727L9.51966 26.25L8.11676 34.9999L12.581 32.8124L17.0452 30.6249L25.9736 26.25V8.74999L8.92844 0Z" fill="white"/>
<path d="M43.6745 28.2194V24.3366H47.7249C48.7492 24.3366 49.6617 24.1783 50.4624 23.8617C51.2818 23.5451 51.9709 23.1075 52.5295 22.5488C53.1068 21.9715 53.5445 21.2918 53.8424 20.5096C54.1404 19.7089 54.2894 18.8243 54.2894 17.8559C54.2894 16.8689 54.1404 15.9843 53.8424 15.2022C53.5445 14.4014 53.1068 13.7217 52.5295 13.163C51.9709 12.6043 51.2818 12.1853 50.4624 11.906C49.6617 11.608 48.7492 11.459 47.7249 11.459H43.6745V7.57624H47.5014C49.3451 7.57624 50.9466 7.84626 52.3061 8.38632C53.6841 8.92637 54.8294 9.67128 55.7419 10.621C56.6731 11.5522 57.3621 12.6137 57.8091 13.8055C58.2746 14.9973 58.5074 16.2451 58.5074 17.5486V18.1632C58.5074 19.3923 58.2746 20.6121 57.8091 21.8225C57.3621 23.0144 56.6731 24.0945 55.7419 25.0629C54.8294 26.0126 53.6841 26.7761 52.3061 27.3534C50.9466 27.9307 49.3451 28.2194 47.5014 28.2194H43.6745ZM40.0431 28.2194V7.57624H44.2332V28.2194H40.0431Z" fill="white"/>
<path d="M67.9547 28.6384C66.6512 28.6384 65.5059 28.4149 64.5189 27.968C63.5319 27.521 62.7125 26.9251 62.0607 26.1802C61.4089 25.4167 60.9154 24.5694 60.5802 23.6382C60.245 22.7071 60.0774 21.748 60.0774 20.761V20.2303C60.0774 19.2247 60.245 18.2563 60.5802 17.3252C60.9154 16.3754 61.3996 15.5281 62.0327 14.7832C62.6845 14.0383 63.4946 13.4517 64.463 13.0233C65.4314 12.5764 66.5394 12.3529 67.7871 12.3529C69.4259 12.3529 70.7947 12.7161 71.8934 13.4424C73.0108 14.1686 73.8581 15.1184 74.4354 16.2916C75.0127 17.4648 75.3013 18.7312 75.3013 20.0906V21.5153H61.8093V19.085H72.7594L71.4744 20.2582C71.4744 19.3085 71.3347 18.4984 71.0554 17.828C70.7947 17.1576 70.385 16.6454 69.8263 16.2916C69.2863 15.9192 68.6065 15.7329 67.7871 15.7329C66.9491 15.7329 66.2415 15.9192 65.6642 16.2916C65.0869 16.6641 64.6492 17.2134 64.3513 17.9397C64.0533 18.6474 63.9043 19.504 63.9043 20.5096C63.9043 21.4594 64.044 22.2974 64.3233 23.0237C64.6027 23.7313 65.0403 24.29 65.6362 24.6997C66.2321 25.0908 67.005 25.2863 67.9547 25.2863C68.8486 25.2863 69.5749 25.1094 70.1336 24.7556C70.7109 24.3831 71.0926 23.9362 71.2789 23.4148H75.022C74.7985 24.4576 74.3609 25.3701 73.7091 26.1523C73.076 26.9344 72.2659 27.549 71.2789 27.9959C70.3105 28.4242 69.2024 28.6384 67.9547 28.6384Z" fill="white"/>
<path d="M76.0601 28.1077L80.9486 19.9789L80.8368 20.6493L76.2557 12.8837H80.6692L83.6302 18.1911H84.0492L86.8426 12.8837H91.0048L86.6471 20.6493L86.7309 20.0627L91.8707 28.1077H87.4572L83.9375 22.4371H83.5185L80.2223 28.1077H76.0601Z" fill="white"/>
<path d="M107.313 28.1077L100.022 18.5822H97.1446L105.916 7.71591H110.693L102.815 17.4928L102.703 15.5095L112.396 28.1077H107.313ZM94.0439 28.1077V7.71591H98.234V28.1077H94.0439Z" fill="white"/>
<path d="M114.501 28.1077V12.8837H118.579V28.1077H114.501ZM112.406 15.9285V12.8837H118.579V15.9285H112.406ZM116.037 11.1797C115.236 11.1797 114.65 10.9749 114.277 10.5652C113.905 10.1555 113.719 9.63403 113.719 9.00087C113.719 8.3677 113.905 7.84626 114.277 7.43657C114.65 7.02687 115.227 6.82202 116.009 6.82202C116.81 6.82202 117.396 7.02687 117.769 7.43657C118.141 7.84626 118.328 8.3677 118.328 9.00087C118.328 9.63403 118.141 10.1555 117.769 10.5652C117.396 10.9749 116.819 11.1797 116.037 11.1797Z" fill="white"/>
<path d="M129.086 28.3032C127.633 28.3032 126.451 28.117 125.538 27.7445C124.626 27.3721 123.946 26.7482 123.499 25.8729C123.052 24.9977 122.828 23.8151 122.828 22.3253L122.856 8.66566H126.655V22.5488C126.655 23.2751 126.851 23.8431 127.242 24.2528C127.633 24.6439 128.192 24.8394 128.918 24.8394H131.265V28.3032H129.086ZM120.454 15.9005V12.8837H131.265V15.9005H120.454Z" fill="white"/>
</svg>
