<svg width="22" height="22" viewBox="0 0 22 22" fill="none" xmlns="http://www.w3.org/2000/svg">
<path d="M8.25 13.4062C8.81954 13.4062 9.28125 12.9445 9.28125 12.375C9.28125 11.8055 8.81954 11.3438 8.25 11.3438C7.68046 11.3438 7.21875 11.8055 7.21875 12.375C7.21875 12.9445 7.68046 13.4062 8.25 13.4062Z" fill="white"/>
<path d="M13.75 13.4062C14.3195 13.4062 14.7812 12.9445 14.7812 12.375C14.7812 11.8055 14.3195 11.3438 13.75 11.3438C13.1805 11.3438 12.7188 11.8055 12.7188 12.375C12.7188 12.9445 13.1805 13.4062 13.75 13.4062Z" fill="white"/>
<path d="M6.3938 6.87498C7.88417 6.40789 9.43824 6.17593 11 6.18748C12.5619 6.17593 14.1159 6.40789 15.6063 6.87498" stroke="white" stroke-width="2" stroke-linecap="round" stroke-linejoin="round"/>
<path d="M15.6063 15.125C14.1159 15.5921 12.5619 15.824 11 15.8125C9.43824 15.824 7.88417 15.5921 6.3938 15.125" stroke="white" stroke-width="2" stroke-linecap="round" stroke-linejoin="round"/>
<path d="M13.3203 15.6492L14.3601 17.7117C14.427 17.8524 14.5408 17.9653 14.682 18.0312C14.8231 18.0971 14.9828 18.1117 15.1335 18.0727C17.239 17.557 19.0609 16.6633 20.3843 15.5117C20.4841 15.4237 20.5566 15.3089 20.5931 15.181C20.6297 15.053 20.6288 14.9173 20.5906 14.7899L17.6773 5.06174C17.6489 4.96218 17.5976 4.87066 17.5275 4.79455C17.4573 4.71843 17.3703 4.65983 17.2734 4.62345C16.4503 4.28578 15.5991 4.02122 14.7296 3.83283C14.5625 3.79624 14.3878 3.82244 14.2388 3.90645C14.0898 3.99046 13.977 4.12639 13.9218 4.2883L13.2429 6.3422" stroke="white" stroke-width="2" stroke-linecap="round" stroke-linejoin="round"/>
<path d="M8.67964 15.6492L7.63979 17.7117C7.57289 17.8524 7.45909 17.9653 7.31795 18.0312C7.1768 18.0971 7.01713 18.1117 6.86636 18.0727C4.76089 17.557 2.93901 16.6633 1.61557 15.5117C1.5158 15.4237 1.44334 15.3089 1.40679 15.181C1.37023 15.053 1.37111 14.9173 1.40932 14.7899L4.32261 5.06174C4.35096 4.96218 4.40227 4.87066 4.47242 4.79455C4.54257 4.71843 4.6296 4.65983 4.72651 4.62345C5.54959 4.28578 6.40079 4.02122 7.27026 3.83283C7.43735 3.79624 7.61206 3.82244 7.76106 3.90645C7.91006 3.99046 8.02291 4.12639 8.07807 4.2883L8.75698 6.3422" stroke="white" stroke-width="2" stroke-linecap="round" stroke-linejoin="round"/>
<path d="M8.25 13.4062C8.81954 13.4062 9.28125 12.9445 9.28125 12.375C9.28125 11.8055 8.81954 11.3438 8.25 11.3438C7.68046 11.3438 7.21875 11.8055 7.21875 12.375C7.21875 12.9445 7.68046 13.4062 8.25 13.4062Z" fill="white"/>
<path d="M13.75 13.4062C14.3195 13.4062 14.7812 12.9445 14.7812 12.375C14.7812 11.8055 14.3195 11.3438 13.75 11.3438C13.1805 11.3438 12.7188 11.8055 12.7188 12.375C12.7188 12.9445 13.1805 13.4062 13.75 13.4062Z" fill="white"/>
<path d="M6.3938 6.87498C7.88417 6.40789 9.43824 6.17593 11 6.18748C12.5619 6.17593 14.1159 6.40789 15.6063 6.87498" stroke="white" stroke-width="2" stroke-linecap="round" stroke-linejoin="round"/>
<path d="M15.6063 15.125C14.1159 15.5921 12.5619 15.824 11 15.8125C9.43824 15.824 7.88417 15.5921 6.3938 15.125" stroke="white" stroke-width="2" stroke-linecap="round" stroke-linejoin="round"/>
<path d="M13.3203 15.6492L14.3601 17.7117C14.427 17.8524 14.5408 17.9653 14.682 18.0312C14.8231 18.0971 14.9828 18.1117 15.1335 18.0727C17.239 17.557 19.0609 16.6633 20.3843 15.5117C20.4841 15.4237 20.5566 15.3089 20.5931 15.181C20.6297 15.053 20.6288 14.9173 20.5906 14.7899L17.6773 5.06174C17.6489 4.96218 17.5976 4.87066 17.5275 4.79455C17.4573 4.71843 17.3703 4.65983 17.2734 4.62345C16.4503 4.28578 15.5991 4.02122 14.7296 3.83283C14.5625 3.79624 14.3878 3.82244 14.2388 3.90645C14.0898 3.99046 13.977 4.12639 13.9218 4.2883L13.2429 6.3422" stroke="white" stroke-width="2" stroke-linecap="round" stroke-linejoin="round"/>
<path d="M8.67964 15.6492L7.63979 17.7117C7.57289 17.8524 7.45909 17.9653 7.31795 18.0312C7.1768 18.0971 7.01713 18.1117 6.86636 18.0727C4.76089 17.557 2.93901 16.6633 1.61557 15.5117C1.5158 15.4237 1.44334 15.3089 1.40679 15.181C1.37023 15.053 1.37111 14.9173 1.40932 14.7899L4.32261 5.06174C4.35096 4.96218 4.40227 4.87066 4.47242 4.79455C4.54257 4.71843 4.6296 4.65983 4.72651 4.62345C5.54959 4.28578 6.40079 4.02122 7.27026 3.83283C7.43735 3.79624 7.61206 3.82244 7.76106 3.90645C7.91006 3.99046 8.02291 4.12639 8.07807 4.2883L8.75698 6.3422" stroke="white" stroke-width="2" stroke-linecap="round" stroke-linejoin="round"/>
</svg>
