<svg width="22" height="22" viewBox="0 0 22 22" fill="none" xmlns="http://www.w3.org/2000/svg">
<path d="M18.2188 3.09375H3.78125C3.40155 3.09375 3.09375 3.40155 3.09375 3.78125V18.2188C3.09375 18.5984 3.40155 18.9062 3.78125 18.9062H18.2188C18.5984 18.9062 18.9062 18.5984 18.9062 18.2188V3.78125C18.9062 3.40155 18.5984 3.09375 18.2188 3.09375Z" stroke="white" stroke-width="2" stroke-linecap="round" stroke-linejoin="round"/>
<path d="M10.3125 9.625V15.125" stroke="white" stroke-width="2" stroke-linecap="round" stroke-linejoin="round"/>
<path d="M7.5625 9.625V15.125" stroke="white" stroke-width="2" stroke-linecap="round" stroke-linejoin="round"/>
<path d="M10.3125 12.0312C10.3125 11.3931 10.566 10.781 11.0173 10.3298C11.4685 9.87852 12.0806 9.625 12.7188 9.625C13.3569 9.625 13.969 9.87852 14.4202 10.3298C14.8715 10.781 15.125 11.3931 15.125 12.0312V15.125" stroke="white" stroke-width="2" stroke-linecap="round" stroke-linejoin="round"/>
<path d="M7.5625 7.90625C8.13204 7.90625 8.59375 7.44454 8.59375 6.875C8.59375 6.30546 8.13204 5.84375 7.5625 5.84375C6.99296 5.84375 6.53125 6.30546 6.53125 6.875C6.53125 7.44454 6.99296 7.90625 7.5625 7.90625Z" fill="white"/>
</svg>
