<svg width="22" height="22" viewBox="0 0 22 22" fill="none" xmlns="http://www.w3.org/2000/svg">
<path d="M7.56247 11.593L15.2882 18.3906C15.3775 18.4697 15.4858 18.5242 15.6025 18.5487C15.7192 18.5732 15.8403 18.567 15.9539 18.5306C16.0674 18.4942 16.1695 18.4288 16.2502 18.341C16.3309 18.2532 16.3873 18.1459 16.414 18.0297L19.6453 3.91877C19.6724 3.79725 19.666 3.67065 19.6267 3.55249C19.5875 3.43433 19.5169 3.32904 19.4225 3.24786C19.3281 3.16669 19.2134 3.11268 19.0907 3.09159C18.968 3.07051 18.8418 3.08314 18.7257 3.12815L2.86169 9.35862C2.22575 9.60784 2.31169 10.536 2.982 10.6735L7.56247 11.593Z" stroke="white" stroke-width="2" stroke-linecap="round" stroke-linejoin="round"/>
<path d="M7.5625 11.593L19.2586 3.14532" stroke="white" stroke-width="2" stroke-linecap="round" stroke-linejoin="round"/>
<path d="M11.4211 14.9875L8.73984 17.6687C8.64419 17.7659 8.52181 17.8324 8.38828 17.8598C8.25474 17.8872 8.11606 17.8743 7.98987 17.8227C7.86368 17.7711 7.75567 17.6832 7.67958 17.5701C7.60348 17.457 7.56273 17.3238 7.5625 17.1875V11.593" stroke="white" stroke-width="2" stroke-linecap="round" stroke-linejoin="round"/>
</svg>
