<svg width="22" height="22" viewBox="0 0 22 22" fill="none" xmlns="http://www.w3.org/2000/svg">
<path d="M11 7.56251C11 5.67188 12.5898 4.09923 14.4804 4.12501C15.1425 4.13265 15.7884 4.33136 16.3402 4.69724C16.8921 5.06313 17.3266 5.58062 17.5914 6.18751H20.625L17.8492 8.96329C17.6701 11.7516 16.4358 14.367 14.3972 16.2778C12.3587 18.1886 9.66903 19.2514 6.87498 19.25C4.12498 19.25 3.43748 18.2188 3.43748 18.2188C3.43748 18.2188 6.18748 17.1875 7.56248 15.125C7.56248 15.125 2.06248 12.375 3.43748 4.81251C3.43748 4.81251 6.87498 8.25001 11 8.93751V7.56251Z" stroke="white" stroke-width="2" stroke-linecap="round" stroke-linejoin="round"/>
</svg>
