<svg width="22" height="22" viewBox="0 0 22 22" fill="none" xmlns="http://www.w3.org/2000/svg">
<path d="M13.75 11L9.625 8.25V13.75L13.75 11Z" stroke="white" stroke-width="2" stroke-linecap="round" stroke-linejoin="round"/>
<path d="M2.0625 11C2.0625 13.5609 2.32891 15.0562 2.52656 15.8297C2.58106 16.0395 2.68412 16.2336 2.82743 16.3963C2.97073 16.5591 3.15027 16.6858 3.35156 16.7664C6.23047 17.8664 11 17.8406 11 17.8406C11 17.8406 15.7695 17.8664 18.6484 16.7664C18.8497 16.6858 19.0293 16.5591 19.1726 16.3963C19.3159 16.2336 19.4189 16.0395 19.4734 15.8297C19.6711 15.0562 19.9375 13.5609 19.9375 11C19.9375 8.43904 19.6711 6.94373 19.4734 6.17029C19.4189 5.96043 19.3159 5.76632 19.1726 5.60361C19.0293 5.4409 18.8497 5.31415 18.6484 5.23357C15.7695 4.13357 11 4.15935 11 4.15935C11 4.15935 6.23047 4.13357 3.35156 5.23357C3.15027 5.31415 2.97073 5.4409 2.82743 5.60361C2.68412 5.76632 2.58106 5.96043 2.52656 6.17029C2.32891 6.94373 2.0625 8.43904 2.0625 11Z" stroke="white" stroke-width="2" stroke-linecap="round" stroke-linejoin="round"/>
</svg>
